<svg width="65" height="40" viewBox="0 0 65 40" fill="none" xmlns="http://www.w3.org/2000/svg">
<path d="M0 25.8453V27.1947L9.3933 34.6597L10.2948 33.5543L3.42845 28.0966C3.26559 27.9669 3.2057 27.752 3.27295 27.5569C3.34229 27.3618 3.52932 27.2331 3.73841 27.2331H13.3461C13.6171 27.2331 13.8388 27.45 13.8388 27.7188V38.2718L15.2751 39.4146V13.314L0 25.8453ZM13.8388 25.3274C13.8388 25.5951 13.6171 25.8131 13.3461 25.8131H3.65435C3.44736 25.8131 3.26244 25.6844 3.19099 25.4934C3.12164 25.2993 3.18048 25.0845 3.33809 24.9537L12.4235 17.497C12.6841 17.2831 13.0361 17.2395 13.3418 17.3797C13.6466 17.5208 13.8378 17.8166 13.8378 18.1509V25.3274H13.8388Z" fill="white"/>
<path d="M31.4013 0V39.999H17.3176V11.5546L18.755 10.3755V37.7279C18.755 38.1971 19.1416 38.579 19.6166 38.579H29.1055C29.5783 38.579 29.9639 38.1971 29.9639 37.7279V1.17913L31.4013 0Z" fill="white"/>
<path d="M46.0249 16.2545V12.6497C46.0249 12.3943 45.9114 12.1566 45.715 11.9957L36.2922 4.26188C36.0338 4.05014 35.6849 4.00654 35.3771 4.1477C35.0724 4.28887 34.8822 4.58261 34.8822 4.9158V37.731C34.8822 38.1981 35.2688 38.579 35.7438 38.579H45.1665C45.6414 38.579 46.0249 38.1971 46.0249 37.731V28.0821C46.0249 27.6129 45.6414 27.2341 45.1665 27.2341H40.9458V25.8142H47.4623V40H33.4448V0.0799255L47.4623 11.5837V16.2535H46.0249V16.2545Z" fill="white"/>
<path d="M49.5042 13.3171V39.3326L59.758 31.4264L58.8596 30.3148L52.3305 35.2814C52.0773 35.4807 51.7306 35.5191 51.428 35.379C51.1275 35.2358 50.9415 34.942 50.9415 34.6099V28.08C50.9415 27.6098 51.3271 27.232 51.8031 27.232H63.6792C64.1331 27.232 64.5839 27.1428 64.9999 26.9705V25.9699L49.5042 13.316V13.3171ZM60.9642 25.2495C60.8423 25.592 60.5239 25.8131 60.1541 25.8131H51.8031C51.3271 25.8131 50.9415 25.4322 50.9415 24.962V18.1415C50.9415 17.8094 51.1306 17.5136 51.4364 17.3703C51.7411 17.2292 52.0931 17.2728 52.3516 17.4845L60.7036 24.307C60.9862 24.5395 61.0892 24.9101 60.9631 25.2505L60.9642 25.2495Z" fill="white"/>
</svg>
